<?xml version="1.0" standalone="yes"?>
<svg xmlns="http://www.w3.org/2000/svg" width="1927" height="1306">
<path style="fill:#040405; stroke:none;" d="M0 0L0 1306L1927 1306L1927 0L0 0z"/>
<path style="fill:#e0b782; stroke:none;" d="M160 1287C409.353 1287 658.713 1286.2 908 1285C1051.61 1284.31 1195.5 1287.53 1339 1284.01C1441.86 1281.49 1545.1 1284 1648 1284L1739 1284C1753.8 1284 1772.65 1286.11 1787 1282.69C1798.25 1280 1810.05 1265.67 1819 1258.66C1841.79 1240.81 1864.12 1222.39 1887 1204.65C1895.41 1198.13 1911.9 1189.24 1916.97 1179.91C1919.59 1175.09 1916.68 1169.87 1916.13 1165C1914.92 1154.26 1916 1142.81 1916 1132C1916 1116 1915 1100.05 1915 1084C1915 1079.54 1916.89 1070.23 1911.85 1068.03C1902.9 1064.12 1887.67 1067 1878 1067C1851.33 1067 1824.59 1068 1798 1068L1515 1068L1515 630C1515 592.429 1516.73 554.383 1513.17 517C1511.78 502.351 1515.84 488.164 1504.1 476.514C1497.62 470.082 1475.69 474 1467 474C1437.82 474 1407 463.41 1378 466.17C1368.12 467.11 1353.37 466.446 1349.03 478.005C1344.39 490.385 1348 509.843 1348 523L1348 625L1348 970L1347 970C1345.93 959.313 1341.47 948.363 1338.64 938C1332.26 914.633 1325.55 891.362 1319.15 868C1299.06 794.603 1278.27 721.393 1258.15 648C1249.83 617.647 1240.96 587.419 1232.88 557C1229.34 543.628 1227.48 522.322 1219.3 511.094C1214.78 504.897 1205.13 502.721 1198 501.424C1178 497.786 1155.62 500.618 1138 511C1138 503.219 1140.18 490.351 1132.81 485.21C1121.3 477.174 1109.08 480.995 1096 481C1081.28 481.006 1065.63 482.52 1051 480.871C1039.93 479.623 1030.5 477 1019 477C1008.14 477 994.47 475.041 986.603 484.595C983.869 487.916 985 493.987 985 498L985 530L985 657L984 657L984 484L984 443C984 435.762 983.72 427.117 978.117 421.603C975.848 419.371 971.908 420.059 969 419.714C959.395 418.577 949.669 419 940 419L832 419C821.805 419 811.117 418.095 801 419.424C798.021 419.816 793.151 419.277 790.92 421.603C773.51 439.762 780 471.347 780 495C758.557 479.761 731.999 472.694 706 478.004C699.008 479.432 687.391 481.726 682.563 487.38C673.43 498.076 670.707 522.59 667.08 536C658.129 569.098 648.125 602.237 638.041 635C610.961 722.982 584.551 811.366 559.572 900C550.612 931.792 540.179 963.101 531.611 995C528.896 1005.11 524.35 1014.55 523 1025L522 1025C517.164 1004.64 504.909 984.073 496.312 965C482.085 933.437 468.62 901.512 454.312 870C409.784 771.924 369.254 671.911 324.309 574C308.268 539.055 292.779 503.507 278.012 468C274.108 458.615 269.639 449.46 265.938 440C264.408 436.089 262.564 429.456 258.775 427.179C250.987 422.498 238.069 431.396 231 434.421C206.821 444.768 182.888 457.525 158 466L158 249C158 208.48 159.855 167.39 157.09 127C155.281 100.594 157 73.473 157 47C157 40.386 160.001 23.6176 155.397 18.5139C149.928 12.4521 129.59 16 122 16C110.433 16 91.8559 12.4552 81.1435 17.0325C75.9318 19.2594 70.9706 29.5343 67.3997 34C55.4727 48.9154 43.5337 63.8694 31.8812 79C25.6035 87.1515 15.2188 96.2242 11.7276 106C8.99155 113.661 11 124.919 11 133L11 191C11 258.651 10.1992 326.355 11.0039 394C13.1791 576.862 13 760.117 13 943L13 1121C13 1149.07 9.15648 1180.25 13.3009 1208C14.639 1216.96 22.7588 1224.2 28.1998 1231L65.6003 1278C70.1789 1283.72 76.5386 1295.8 84.0039 1297.68C90.2377 1299.25 98.5218 1297 105 1297C119.944 1297 140.63 1300.75 154.956 1296.57C159.534 1295.23 159.901 1291.08 160 1287z"/>
<path style="fill:#ac785a; stroke:none;" d="M83 26C69.7243 47.2467 51.4121 66.1418 36.1188 86C30.6557 93.0939 21.0863 101.289 18.5131 110C16.0836 118.225 18 129.45 18 138L18 198C18 262.659 17.4034 327.427 18.9853 392C20.8203 466.899 19 542.076 19 617C19 735.057 20 852.975 20 971L20 1136L20 1185C20 1191.96 18.3632 1201.39 20.7276 1208C24.0651 1217.34 34.2527 1226.32 40.3997 1234C54.7428 1251.93 68.7757 1277.05 87 1291C90.6692 1278.59 87.5979 1262.76 87.0394 1250C85.9346 1224.77 87 1199.26 87 1174L87 908C87 614.033 85 320.031 85 26L83 26M509 1078C527.277 1073.65 551.049 1078 570 1078L702 1078L702 1077L528 1077C537.508 1062.83 523.037 1045.74 516.769 1032C499.566 994.292 483.207 956.083 466.85 918C423.442 816.941 378.307 716.601 333.86 616C307.116 555.466 282.337 493.802 254 434C229.111 441.167 204.78 455.261 181 465.576C173.812 468.694 157.732 472.344 153.028 478.699C149.784 483.081 152.276 493.669 151.576 499C148.512 522.329 151 547.465 151 571C151 583.105 149.715 596.105 152.386 608C154.597 617.85 160.618 627.719 164.579 637C173.425 657.732 182.606 678.322 191.576 699C220.801 766.375 250.756 833.451 279.579 901C298.556 945.475 317.824 989.918 337.694 1034C342.468 1044.59 347.02 1055.32 351.579 1066C353.064 1069.48 354.454 1075.72 358.225 1077.4C368.737 1082.06 389.475 1078 401 1078L440 1078C444.613 1078 451.774 1079.34 455.675 1076.4C472.463 1063.73 467.54 1042.45 461.189 1026C446.493 987.94 431.041 950.108 416.532 912C409.303 893.01 400.17 874.749 392.334 856C390.422 851.425 387.316 838.867 396.005 838.867C401.621 838.867 405.964 846.769 408.218 851C415.362 864.406 421.277 878.385 427.966 892C445.618 927.928 459.874 965.38 478.258 1001C491.636 1026.92 509.606 1047.66 509 1078M1360 531C1359.44 520.403 1360 509.621 1360 499C1360 494.846 1359.16 489.569 1362.32 486.303C1368.64 479.774 1383.8 481.68 1392 482.039C1416.87 483.128 1441.95 484 1467 484C1476.51 484 1489.21 481.378 1496.24 489.105C1505.13 498.866 1499.7 514.906 1501.29 527C1506.67 567.951 1502.65 609.962 1506 651C1510.04 641.08 1507 624.703 1507 614C1507 589.171 1511.06 560.424 1506.77 536C1506.07 532.013 1503.14 528.97 1502.34 525C1499.85 512.512 1508.24 496.467 1496.81 486.394C1489.26 479.734 1472.44 483 1463 483C1443.42 483 1422.59 482.346 1403 480.91C1392.32 480.127 1381.78 477.281 1371 479.9C1353.89 484.056 1358 501.039 1358 515C1358 519.577 1356.34 527.803 1360 531z"/>
<path style="fill:#6f4eaa; stroke:none;" d="M1502 532C1501 519.291 1505.42 496.599 1495.41 487.394C1488.41 480.953 1472.89 484 1464 484C1444.53 484 1423.26 485.296 1404 483.381C1392.71 482.259 1373.3 478.048 1363.15 484.938C1356.19 489.659 1360.04 512.324 1360 520C1359.99 522.815 1358.39 528.89 1360.78 530.972C1363.05 532.947 1368.23 532 1371 532L1398 532L1469 532C1479.61 532 1491.64 530.162 1502 532z"/>
<path style="fill:#2ba6a4; stroke:none;" d="M528 1077L656 1077L689 1077C692.599 1077 699.38 1078.28 702.411 1075.97C707.381 1072.19 708.659 1055.94 710.011 1050C715.194 1027.21 721.806 1004.68 727.475 982C741.244 926.925 755.463 871.915 769.884 817C780.14 777.946 792 740.495 792 700C792 658.653 791 617.272 791 576C791 563.607 790.092 551.327 790.005 539C789.954 531.8 792.051 524.994 789.221 518C776.308 486.1 725.462 478.371 697 488.547C683.234 493.469 681.74 513.327 678.092 526C667.903 561.393 657.34 596.711 646.798 632C613.164 744.587 580.488 857.45 546.72 970C539.578 993.803 527.744 1020.33 524.934 1045C524.018 1053.05 531.692 1059.28 532.113 1067C532.306 1070.55 529.457 1073.91 528 1077M1113 622L1115 752L994 755L993 809L994 883L1116 885L1116 905C1107.62 902.695 1095.87 905 1087 905L1023 905C1017.35 905.002 997.849 901.969 994.179 906.603C991.762 909.655 993 916.355 993 920C993 932.002 993.695 944.066 994.83 956C996.035 968.658 994.323 981.4 994.015 994C993.345 1021.33 993 1048.61 993 1076C1040.45 1076 1088.13 1073.95 1135 1080L1132 498C1125.49 497.927 1120.41 494.206 1114 494.015C1089.77 493.294 1065.18 495.682 1041 493.91C1028.14 492.967 1011.23 486.393 999.019 494.009C991.331 498.805 994 511.207 994 519C994 542.69 995 566.277 995 590C995 597.472 992.067 612.359 999.109 617.258C1005.96 622.023 1019.04 618.232 1027 619.184C1055.31 622.572 1084.44 620.774 1113 622M871 503.468C863.878 504.849 858.866 510.776 854.286 516C831.208 542.322 851.283 595.584 890 588.671C928.547 581.787 934.543 527.116 904 506.854C895.729 501.367 880.472 501.632 871 503.468z"/>
<path style="fill:#ac785a; stroke:none;" d="M1170 507L1170 508L1173 508L1170 507z"/>
<path style="fill:#6f4eaa; stroke:none;" d="M1505 1075L1506 1034L1504 1022L1505 1014L1504 1014C1501.55 1027.5 1478.74 1022 1468 1022C1441.61 1022 1415.21 1023.68 1389 1024C1382.41 1024.07 1375.57 1024.45 1369 1023.83C1366.62 1023.6 1362.86 1022.26 1360.78 1024.03C1358.08 1026.33 1360 1035.63 1360 1039C1353.68 1024.82 1350.82 1008.9 1346.57 994C1338.23 964.733 1330.42 935.312 1322.25 906C1297.94 818.756 1271.62 731.787 1249.37 644C1240.92 610.612 1231.92 576.882 1221.66 544C1217.77 531.529 1218.02 515.668 1204 510.699C1186.34 504.441 1164.84 506.127 1148 514.258C1143.23 516.564 1135.78 519.352 1133.03 524.184C1130 529.51 1132 540.007 1132 546C1132.01 564.326 1129.39 584.937 1132.32 603C1135.65 623.473 1143.64 644.124 1149.44 664C1157.87 692.901 1164.99 722.165 1173.64 751C1193.09 815.836 1208.26 882.077 1227.64 947C1236.63 977.138 1244.94 1007.58 1253 1038C1255.54 1047.6 1255.54 1065.76 1262.14 1073.4C1264.99 1076.69 1274.06 1075 1278 1075L1323 1075C1383.3 1075 1444.83 1071.43 1505 1075z"/>
<path style="fill:#ac785a; stroke:none;" d="M1191 507L1191 508L1194 508L1191 507M1165 508L1165 509L1168 509L1165 508M1195 508L1195 509L1198 509L1195 508M1162 509L1163 510L1162 509M1200 509L1201 510L1200 509M1203 510L1204 511L1203 510M1154 511L1155 512L1154 511M1206 511L1207 512L1206 511M1151 512L1152 513L1151 512M1208 512L1209 513L1208 512M1149 513L1150 514L1149 513M1210 513L1211 514L1210 513M1147 514L1148 515L1147 514M1145 515L1146 516L1145 515M1213 515L1214 516L1213 515M1143 516L1144 517L1143 516M1141 517L1142 518L1141 517M1214.33 517.667L1214.67 518.333L1214.33 517.667M1138 519L1139 520L1138 519M1136 520L1137 521L1136 520M1215.33 520.667L1215.67 521.333L1215.33 520.667M790.333 521.667L790.667 522.333L790.333 521.667M1135 521L1136 522L1135 521M1132 523L1133 524L1132 523M1216 524L1217 525L1216 524z"/>
<path style="fill:#2ba6a4; stroke:none;" d="M1185.67 527.333L1186.33 527.667L1185.67 527.333M1207 527L1208 528L1207 527M1179.67 528.333L1180.33 528.667L1179.67 528.333z"/>
<path style="fill:#ac785a; stroke:none;" d="M1217 528L1218 529L1217 528M791 530L791 557L792 557L791 530z"/>
<path style="fill:#2ba6a4; stroke:none;" d="M1359 531L1359 715C1368.88 712.73 1380.75 715.41 1391 714.961C1416.99 713.821 1442.85 713 1469 713C1476.73 713 1499.01 709.232 1504.4 715.434C1507.33 718.804 1506 725.862 1506 730L1506 769L1507 769L1507 651L1505 653L1500 645L1499 645L1498.46 657.887L1473 658L1403 658C1405.65 650.799 1418.31 655 1425 655L1472 655C1477.74 655 1486.54 656.647 1491.89 654.397C1496.72 652.365 1494.79 646.94 1494.29 643C1493.08 633.562 1494 623.509 1494 614C1494 611.02 1495.07 605.147 1492.4 603.028C1488.27 599.763 1476.09 602 1471 602L1422 602C1414.08 602 1406.37 603.386 1400 598C1411.22 593.911 1425.17 596 1437 596L1483 596C1488.64 596 1494.52 594.241 1500 595C1507.4 581.853 1504 562.648 1504 548C1504 543.03 1505.66 534.151 1499.89 531.746C1491.47 528.237 1473.43 532 1464 532L1395 532C1383.41 532 1370.31 533.692 1359 531z"/>
<path style="fill:#ac785a; stroke:none;" d="M1218 532L1219 533L1218 532z"/>
<path style="fill:#2ba6a4; stroke:none;" d="M1161 533L1162 534L1161 533M1157 534L1158 535L1157 534z"/>
<path style="fill:#ac785a; stroke:none;" d="M1219 536L1220 537L1219 536z"/>
<path style="fill:#2ba6a4; stroke:none;" d="M1188 537L1189 538L1188 537M1181.67 538.333L1182.33 538.667L1181.67 538.333z"/>
<path style="fill:#ac785a; stroke:none;" d="M1220.33 539.667L1220.67 540.333L1220.33 539.667z"/>
<path style="fill:#2ba6a4; stroke:none;" d="M1139 540L1140 541L1139 540z"/>
<path style="fill:#ac785a; stroke:none;" d="M1221.33 542.667L1221.67 543.333L1221.33 542.667z"/>
<path style="fill:#2ba6a4; stroke:none;" d="M1159 544L1160 545L1159 544z"/>
<path style="fill:#ac785a; stroke:none;" d="M994 545L994 601C994 605.725 992.393 617.663 996.603 620.972C999.065 622.907 1004.08 622 1007 622C1015.6 622 1024.43 621.376 1033 622C1025.3 611.882 1004.73 626.068 996.742 613.956C993.606 609.198 995 601.434 995 596C995 581.7 999.506 558.121 994 545z"/>
<path style="fill:#2ba6a4; stroke:none;" d="M1155 545L1156 546L1155 545z"/>
<path style="fill:#ac785a; stroke:none;" d="M1222 546L1223 547L1222 546z"/>
<path style="fill:#2ba6a4; stroke:none;" d="M1141 550L1142 551L1141 550z"/>
<path style="fill:#ac785a; stroke:none;" d="M1223 550L1224 551L1223 550z"/>
<path style="fill:#2ba6a4; stroke:none;" d="M1190 551L1191 552L1190 551M1183.67 552.333L1184.33 552.667L1183.67 552.333M1178 553L1179 554L1178 553M1160 558L1161 559L1160 558z"/>
<path style="fill:#ac785a; stroke:none;" d="M791 559L791 598L792 598C792 586.828 795.311 569.274 791 559z"/>
<path style="fill:#2ba6a4; stroke:none;" d="M1156.67 559.333L1157.33 559.667L1156.67 559.333z"/>
<path style="fill:#ac785a; stroke:none;" d="M1226 561L1227 562L1226 561z"/>
<path style="fill:#2ba6a4; stroke:none;" d="M1185 562L1186 563L1185 562M1179.67 563.333L1180.33 563.667L1179.67 563.333M1144 564L1145 565L1144 564M1174 564L1175 565L1174 564z"/>
<path style="fill:#ac785a; stroke:none;" d="M1227.33 564.667L1227.67 565.333L1227.33 564.667z"/>
<path style="fill:#2ba6a4; stroke:none;" d="M1141 565L1142 566L1141 565z"/>
<path style="fill:#ac785a; stroke:none;" d="M1228 567L1229 568L1228 567z"/>
<path style="fill:#2ba6a4; stroke:none;" d="M1158 569L1159 570L1158 569z"/>
<path style="fill:#ac785a; stroke:none;" d="M1229 571L1230 572L1229 571z"/>
<path style="fill:#2ba6a4; stroke:none;" d="M1146 574L1147 575L1146 574M1143 575L1144 576L1143 575z"/>
<path style="fill:#ac785a; stroke:none;" d="M1230 575L1231 576L1230 575M1231 579L1232 580L1231 579z"/>
<path style="fill:#6f4eaa; stroke:none;" d="M1504 582L1500 595L1474 596L1424 596L1400 598C1405.42 604.51 1417.22 602 1425 602L1475 602C1479.42 602 1489.01 600.214 1492.4 603.603C1496.36 607.571 1494 620.731 1494 626C1494 632.089 1497.68 650.946 1491.88 654.012C1486.76 656.713 1477.65 655 1472 655L1425 655C1418.45 655 1404.72 650.119 1403 658L1475 658L1499.21 657.961L1499 645L1500 645L1505 653L1504.46 639L1505 603L1504 582z"/>
<path style="fill:#ac785a; stroke:none;" d="M1232 583L1233 584L1232 583M1233 585L1233 588L1234 588L1233 585M1234 589L1235 590L1234 589M1235 593L1236 594L1235 593M1236 597L1237 598L1236 597M1237 601L1238 602L1237 601M1238.33 604.667L1238.67 605.333L1238.33 604.667M1133 607L1133 611L1134 611L1133 607M1239.33 607.667L1239.67 608.333L1239.33 607.667M1240 611L1241 612L1240 611M1134 612L1135 613L1134 612M1135 613L1135 617L1136 617L1135 613M1241 614L1242 615L1241 614M1136 618L1136 621L1137 621L1136 618M1242 618L1243 619L1242 618M1137 621L1137 625L1138 625L1137 621M1243 622L1244 623L1243 622M1138 626L1138 629L1139 629L1138 626M1244 626L1245 627L1244 626M1245 628L1245 631L1246 631L1245 628M1139 629L1139 633L1140 633L1139 629M1246.33 632.667L1246.67 633.333L1246.33 632.667M1140 634L1141 635L1140 634M1141 635L1141 639L1142 639L1141 635M1247 636L1248 637L1247 636M1142 640L1142 643L1143 643L1142 640M1248 640L1249 641L1248 640M1143 643L1143 647L1144 647L1143 643M1249 644L1250 645L1249 644z"/>
<path style="fill:#040405; stroke:none;" d="M159 646L160 1071L345 1071C336.368 1039.44 318.183 1007.91 304.861 978C278.813 919.511 253.74 860.573 227.862 802C212.58 767.41 197.269 732.781 182.427 698C175.435 681.612 169.756 660.213 159 646z"/>
<path style="fill:#ac785a; stroke:none;" d="M1250.33 647.667L1250.67 648.333L1250.33 647.667M1144 648L1145 649L1144 648M1145 649L1145 653L1146 653L1145 649M1251 651L1252 652L1251 651M1252 654L1253 655L1252 654M1146 656L1147 657L1146 656M1147 657L1147 661L1148 661L1147 657z"/>
<path style="fill:#040405; stroke:none;" d="M1139 661L1141 1069L1253 1069C1251.69 1064.96 1230.55 1053.62 1247 1051L1226.07 973L1185.8 828L1155.8 720L1139 661z"/>
<path style="fill:#ac785a; stroke:none;" d="M1148.33 661.667L1148.67 662.333L1148.33 661.667M1149 663L1149 667L1150 667L1149 663M1255 665L1256 666L1255 665M1150 668L1150 671L1151 671L1150 668M1256 669L1257 670L1256 669M1151 671L1151 675L1152 675L1151 671M1257.33 672.667L1257.67 673.333L1257.33 672.667M1258.33 675.667L1258.67 676.333L1258.33 675.667M1152 676L1153 677L1152 676M1153 677L1153 681L1154 681L1153 677z"/>
<path style="fill:#040405; stroke:none;" d="M984 678L984 896L985 896L985 743L985 699L984 678z"/>
<path style="fill:#ac785a; stroke:none;" d="M1259 679L1260 680L1259 679M1154 682L1154 685L1155 685L1154 682M1260 683L1261 684L1260 683M1155 685L1155 689L1156 689L1155 685M1261 687L1262 688L1261 687M1156 690L1156 693L1157 693L1156 690M1262 691L1263 692L1262 691z"/>
<path style="fill:#e0b782; stroke:none;" d="M323.044 694.032C312.12 699.7 320.746 717.34 324.231 725C336.212 751.337 345.442 779.88 359.873 804.999C363.92 812.045 375.204 825.514 384.867 819.972C393.348 815.109 387.534 799.207 383.985 793C368.996 766.792 354.066 742.167 342.8 714C340.001 707.001 334.452 688.112 323.044 694.032z"/>
<path style="fill:#ac785a; stroke:none;" d="M1157 693L1157 697L1158 697L1157 693M1263.33 694.667L1263.67 695.333L1263.33 694.667M1264.33 697.667L1264.67 698.333L1264.33 697.667M1158 698L1159 699L1158 698M1159 699L1159 703L1160 703L1159 699M1265 701L1266 702L1265 701M1160 704L1160 707L1161 707L1160 704M1266 705L1267 706L1266 705M1161 707L1161 711L1162 711L1161 707M1162 712L1162 715L1163 715L1162 712z"/>
<path style="fill:#6f4eaa; stroke:none;" d="M1504 970L1505 970L1504 963C1507.4 960.03 1506 953.241 1506 949C1506 935.659 1505.94 922.324 1506 909C1506.21 860.838 1506 812.303 1506 764L1506 728C1506 724.349 1507.28 717.561 1504.4 714.742C1499.54 709.993 1482.45 713 1476 713C1447.95 713 1419.87 712.134 1392 714.83C1384.32 715.573 1375.65 715.566 1368 714.576C1365.47 714.248 1361.12 713.151 1359.91 716.318C1358.72 719.433 1360 724.657 1360 728L1360 757L1360 855L1360 931C1360 936.858 1356.92 953.865 1360.22 958.396C1362.08 960.953 1366.46 959.411 1369 959.17C1376.12 958.495 1383.85 958.643 1391 959.043C1395.85 959.315 1400.13 961.721 1405 961.96C1428.88 963.13 1453.09 962 1477 962C1486.6 962 1500.94 958.309 1504 970z"/>
<path style="fill:#ac785a; stroke:none;" d="M1163 715L1163 719L1164 719L1163 715M1358 715L1358 898L1358 943L1360 959L1360 861L1360 715L1358 715M1269 716L1270 717L1269 716M1270.33 719.667L1270.67 720.333L1270.33 719.667M1164 720L1165 721L1164 720M1165 721L1165 725L1166 725L1165 721M1271 722L1272 723L1271 722M1166 726L1166 729L1167 729L1166 726M1272 726L1273 727L1272 726M1167 729L1167 733L1168 733L1167 729M1273 730L1274 731L1273 730M1168 734L1168 737L1169 737L1168 734M1274 734L1275 735L1274 734M1169 737L1169 741L1170 741L1169 737M1275 738L1276 739L1275 738M1276 740L1276 743L1277 743L1276 740M1170 742L1171 743L1170 742M1171 743L1171 747L1172 747L1171 743M1277 744L1278 745L1277 744M1172 748L1173 749L1172 748M1278 748L1279 749L1278 748M1173 749L1173 753L1174 753L1173 749M995 753L995 755L1034 754C1023.73 749.689 1006.17 753 995 753M1174 754L1174 757L1175 757L1174 754M1280 756L1281 757L1280 756M1175 757L1175 761L1176 761L1175 757M1281.33 759.667L1281.67 760.333L1281.33 759.667M1176 762L1177 763L1176 762M1282.33 762.667L1282.67 763.333L1282.33 762.667M1176 764L1177 765L1176 764M1177 765L1177 769L1178 769L1177 765M1283.33 765.667L1283.67 766.333L1283.33 765.667M1284 769L1285 770L1284 769M1506 769L1506 828L1506 901L1507 901L1507 809C1507 797.58 1510.41 779.504 1506 769M1178 770L1179 771L1178 770M1179 771L1179 775L1180 775L1179 771M1285 773L1286 774L1285 773M1180 776L1180 779L1181 779L1180 776M1286 777L1287 778L1286 777M1181 779L1181 783L1182 783L1181 779M1287 781L1288 782L1287 781M1288.33 784.667L1288.67 785.333L1288.33 784.667M1182 786L1183 787L1182 786z"/>
<path style="fill:#040405; stroke:none;" d="M785 787L755.902 900L713 1070L781 1070L783 1007L783.039 878L785.946 864L786 813L785 787z"/>
<path style="fill:#ac785a; stroke:none;" d="M1183 787L1183 791L1184 791L1183 787M1289.33 787.667L1289.67 788.333L1289.33 787.667M1290 791L1291 792L1290 791M1184 792L1185 793L1184 792M1185 793L1185 797L1186 797L1185 793M1291 795L1292 796L1291 795M1186 798L1186 801L1187 801L1186 798M1292 799L1293 800L1292 799M1187 801L1187 805L1188 805L1187 801M1293 803L1294 804L1293 803M1188 806L1189 807L1188 806M1294 806L1295 807L1294 806M1189 807L1189 811L1190 811L1189 807M1295.33 809.667L1295.67 810.333L1295.33 809.667M1190 812L1190 815L1191 815L1190 812M1296 813L1297 814L1296 813M1191 815L1191 819L1192 819L1191 815M1192 820L1192 823L1193 823L1192 820M1298 820L1299 821L1298 820M1193 823L1193 827L1194 827L1193 823M1299 824L1300 825L1299 824M1194 828L1195 829L1194 828M1300 828L1301 829L1300 828M1195 829L1195 833L1196 833L1195 829M1301 830L1301 833L1302 833L1301 830M1196 834L1196 837L1197 837L1196 834M1302 834L1303 835L1302 834M1197 837L1197 841L1198 841L1197 837M1303 838L1304 839L1303 838M1198 842L1198 845L1199 845L1198 842M1304 842L1305 843L1304 842M1199 845L1199 849L1200 849L1199 845M1305 846L1306 847L1305 846M1306.33 849.667L1306.67 850.333L1306.33 849.667M1200 850L1201 851L1200 850M1201 851L1201 855L1202 855L1201 851M1307.33 852.667L1307.67 853.333L1307.33 852.667M1202 856L1203 857L1202 856M1308 856L1309 857L1308 856M1202 858L1203 859L1202 858M1203 859L1203 863L1204 863L1203 859M1309 860L1310 861L1309 860M1204 864L1205 865L1204 864M1205 865L1205 869L1206 869L1205 865M1206 870L1206 873L1207 873L1206 870M1312 871L1313 872L1312 871M1207 873L1207 877L1208 877L1207 873z"/>
<path style="fill:#e0b782; stroke:none;" d="M1530.6 874.028C1523.84 879.385 1532.64 892.112 1540.4 885.972C1547.16 880.615 1538.36 867.888 1530.6 874.028z"/>
<path style="fill:#ac785a; stroke:none;" d="M1313.33 874.667L1313.67 875.333L1313.33 874.667M1314.33 877.667L1314.67 878.333L1314.33 877.667M1208 878L1209 879L1208 878M1209 879L1209 883L1210 883L1209 879M1315 881L1316 882L1315 881M995 883C997.617 887.037 1002.61 886 1007 886C1016.76 886 1026.29 885.766 1036 885C1024.65 879.903 1007.26 883 995 883M1210 884L1210 887L1211 887L1210 884M1316 885L1317 886L1316 885M1211 887L1211 891L1212 891L1211 887M1317 889L1318 890L1317 889M1212 892L1212 895L1213 895L1212 892M1318 893L1319 894L1318 893M1213 895L1213 899L1214 899L1213 895M1319.33 896.667L1319.67 897.333L1319.33 896.667M1320.33 899.667L1320.67 900.333L1320.33 899.667M1214 900L1215 901L1214 900M1215 901L1215 905L1216 905L1215 901z"/>
<path style="fill:#2ba6a4; stroke:none;" d="M1506 901L1506 912L1507 912L1506 901z"/>
<path style="fill:#ac785a; stroke:none;" d="M994 904L994 905L1033 905L1033 903C1020.16 902.448 1006.6 900.241 994 904M1321 903L1322 904L1321 903z"/>
<path style="fill:#2ba6a4; stroke:none;" d="M1268 905L1267 907L1268 905M1274 905L1275 906L1274 905z"/>
<path style="fill:#ac785a; stroke:none;" d="M1216 906L1216 909L1217 909L1216 906M1217 909L1217 913L1218 913L1217 909M1323 911L1324 912L1323 911z"/>
<path style="fill:#040405; stroke:none;" d="M984 912L984 1069L985 1069C985 1030.61 988.712 992.191 987.039 954C986.511 941.933 988.625 923.023 984 912z"/>
<path style="fill:#ac785a; stroke:none;" d="M1506 912L1506 948L1504 963C1505.25 970.565 1508.5 993.055 1504 999L1504 1022C1507.59 1022 1506 1030.89 1506 1034C1506 1046.76 1508.54 1062.77 1505 1075L1426 1075L1262 1075L1262 1076L1507 1076L1507 961C1507 947.224 1511.31 924.645 1506 912M1218 914L1218 917L1219 917L1218 914z"/>
<path style="fill:#2ba6a4; stroke:none;" d="M1278 915L1279 916L1278 915z"/>
<path style="fill:#ac785a; stroke:none;" d="M1219 917L1219 921L1220 921L1219 917M1325 918L1326 919L1325 918z"/>
<path style="fill:#2ba6a4; stroke:none;" d="M1279 919L1280 920L1279 919z"/>
<path style="fill:#ac785a; stroke:none;" d="M1326 920L1326 923L1327 923L1326 920M1220 922L1221 923L1220 922M1221 923L1221 927L1222 927L1221 923M1327 924L1328 925L1327 924z"/>
<path style="fill:#2ba6a4; stroke:none;" d="M1262 926L1263 927L1262 926z"/>
<path style="fill:#ac785a; stroke:none;" d="M1222 928L1222 931L1223 931L1222 928M1328 928L1329 929L1328 928z"/>
<path style="fill:#2ba6a4; stroke:none;" d="M1261 930L1262 931L1261 930z"/>
<path style="fill:#ac785a; stroke:none;" d="M1223 931L1223 935L1224 935L1223 931M1329 932L1330 933L1329 932z"/>
<path style="fill:#2ba6a4; stroke:none;" d="M1284 935L1285 936L1284 935z"/>
<path style="fill:#ac785a; stroke:none;" d="M1224 936L1224 939L1225 939L1224 936z"/>
<path style="fill:#2ba6a4; stroke:none;" d="M1274.33 936.667L1274.67 937.333L1274.33 936.667z"/>
<path style="fill:#ac785a; stroke:none;" d="M1330 936L1331 937L1330 936z"/>
<path style="fill:#2ba6a4; stroke:none;" d="M1285.33 938.667L1285.67 939.333L1285.33 938.667z"/>
<path style="fill:#ac785a; stroke:none;" d="M1225 939L1225 943L1226 943L1225 939M1331.33 939.667L1331.67 940.333L1331.33 939.667z"/>
<path style="fill:#2ba6a4; stroke:none;" d="M1261 940L1262 941L1261 940M1267 940L1268 941L1267 940M1275 940L1276 941L1275 940M1264.67 941.333L1265.33 941.667L1264.67 941.333z"/>
<path style="fill:#ac785a; stroke:none;" d="M1332.33 942.667L1332.67 943.333L1332.33 942.667z"/>
<path style="fill:#2ba6a4; stroke:none;" d="M1286 943L1287 944L1286 943z"/>
<path style="fill:#ac785a; stroke:none;" d="M1226 944L1227 945L1226 944M1227 945L1227 949L1228 949L1227 945M794 976C806.813 975.443 820.772 978.154 834 977.996C866.107 977.612 898.619 976 931 976C946.391 976 972.57 982.814 973 962L972 962C968.984 973.417 948.509 969 939 969L837 969C828.435 969 801.805 973.703 800.091 962C799.544 958.261 802.483 955.251 806.001 954.523C814.793 952.705 826.864 955 836 955L938 955C946.08 955 967.699 951.201 972 959C977.279 944.112 943.945 949 936 949C900.989 949 865.809 947 831 947C821.18 947 802.73 942.797 794.742 949.985C790.261 954.017 792.736 970.691 794 976M1333 946L1334 947L1333 946M1228 950L1228 953L1229 953L1228 950M1334 950L1335 951L1334 950M1229 953L1229 957L1230 957L1229 953z"/>
<path style="fill:#2ba6a4; stroke:none;" d="M1279 953L1280 954L1279 953M804.019 954.746C796.996 957.468 799.199 967.909 806.015 969.258C817.449 971.52 832.237 969 844 969L928 969L958 969C961.294 969 966.64 969.976 969.49 967.972C972.872 965.594 974.079 957.58 969.718 955.599C962.999 952.548 950.343 955 943 955L844 955C834.675 955 825.322 955.214 816 954.985C812.171 954.892 807.717 953.313 804.019 954.746z"/>
<path style="fill:#ac785a; stroke:none;" d="M1335 954L1336 955L1335 954z"/>
<path style="fill:#2ba6a4; stroke:none;" d="M1291 956L1291 960L1292 960L1291 956M1280 957L1281 958L1280 957z"/>
<path style="fill:#ac785a; stroke:none;" d="M1230 958L1231 959L1230 958M1336 958L1337 959L1336 958M1231 959L1231 963L1232 963L1231 959z"/>
<path style="fill:#2ba6a4; stroke:none;" d="M1359 959L1359 990C1369 988.49 1380.62 991.74 1391 991.246C1396.49 990.985 1400.53 986.649 1406 986.105C1422.66 984.448 1440.25 986 1457 986C1469.45 986 1485.99 989.035 1497.98 986.477C1505.57 984.859 1506.02 969.416 1502.14 964.279C1499.39 960.636 1494.91 961.809 1491 961.961C1482.36 962.298 1473.65 962 1465 962C1445.2 962 1424.73 963.524 1405 961.907C1400.5 961.538 1396.52 959.297 1392 959.043C1381.38 958.448 1369.27 961.233 1359 959z"/>
<path style="fill:#ac785a; stroke:none;" d="M972 960L973 961L972 960M1337 961L1338 962L1337 961M1232 964L1233 965L1232 964M1338.33 964.667L1338.67 965.333L1338.33 964.667M1232 966L1233 967L1232 966M1233 967L1233 971L1234 971L1233 967M1339 968L1340 969L1339 968M1234.33 971.667L1234.67 972.333L1234.33 971.667M1235 973L1235 977L1236 977L1235 973z"/>
<path style="fill:#2ba6a4; stroke:none;" d="M1304 974L1304 975L1307 975L1304 974M1310 974L1311 975L1310 974M1327 974L1328 975L1327 974z"/>
<path style="fill:#ac785a; stroke:none;" d="M1341 975L1342 976L1341 975z"/>
<path style="fill:#2ba6a4; stroke:none;" d="M1329 976L1330 977L1329 976z"/>
<path style="fill:#ac785a; stroke:none;" d="M1236 978L1236 981L1237 981L1236 978z"/>
<path style="fill:#2ba6a4; stroke:none;" d="M1279 978L1280 979L1279 978z"/>
<path style="fill:#6f4eaa; stroke:none;" d="M1504 978C1500.63 990.89 1480.67 986 1470 986C1448.78 986 1427.18 984.821 1406 986.043C1400.52 986.359 1396.68 990.399 1391.42 991.043C1380.83 992.343 1370.39 989.906 1360 989L1360 997C1395.95 996.258 1431.79 998 1468 998C1478.12 998 1498.41 993.812 1504 1004L1505 1004L1504 999C1508.12 995.401 1505.85 982.674 1504 978z"/>
<path style="fill:#2ba6a4; stroke:none;" d="M1274 979L1275 980L1274 979z"/>
<path style="fill:#ac785a; stroke:none;" d="M1342 979L1343 980L1342 979z"/>
<path style="fill:#2ba6a4; stroke:none;" d="M1269 980L1270 981L1269 980z"/>
<path style="fill:#ac785a; stroke:none;" d="M1237 981L1237 985L1238 985L1237 981M1343 983L1344 984L1343 983z"/>
<path style="fill:#2ba6a4; stroke:none;" d="M1304 984L1304 985L1311 985L1304 984M1256 985L1257 986L1256 985M1296 985L1297 986L1296 985z"/>
<path style="fill:#ac785a; stroke:none;" d="M1238 986L1239 987L1238 986M1344.33 986.667L1344.67 987.333L1344.33 986.667M1239 987L1239 991L1240 991L1239 987M794 990L794 1017C807.067 1016.46 821.487 1019.06 835 1019C866.758 1018.85 898.989 1017 931 1017C945.261 1017 972.581 1023.66 973 1004L972 1004C969.061 1014.13 947.573 1010 939 1010C905.004 1010 870.912 1009.05 837 1009C827.113 1008.98 816.781 1010.23 807.001 1009.8C803.783 1009.66 799.867 1007.7 799.867 1003.99C799.867 1000.34 803.698 997.687 807.001 997.398C816.603 996.558 827.265 998.001 837 998C870.912 997.998 905.004 997 939 997C947.498 997 969.005 992.915 972 1003C979.238 984.449 942.479 990 933 990C899.62 990 866.186 988.399 833 988.004C820.119 987.851 806.435 990.548 794 990z"/>
<path style="fill:#2ba6a4; stroke:none;" d="M1275.67 989.333L1276.33 989.667L1275.67 989.333z"/>
<path style="fill:#ac785a; stroke:none;" d="M1345.33 989.667L1345.67 990.333L1345.33 989.667z"/>
<path style="fill:#2ba6a4; stroke:none;" d="M1271 990L1272 991L1271 990z"/>
<path style="fill:#ac785a; stroke:none;" d="M1358 990L1358 996L1360 996L1360 990L1358 990M1240 992L1240 995L1241 995L1240 992z"/>
<path style="fill:#2ba6a4; stroke:none;" d="M1248.33 993.667L1248.67 994.333L1248.33 993.667z"/>
<path style="fill:#ac785a; stroke:none;" d="M1346 993L1347 994L1346 993M1241 995L1241 999L1242 999L1241 995z"/>
<path style="fill:#2ba6a4; stroke:none;" d="M1259 995L1260 996L1259 995M1249 996L1250 997L1249 996M1359 996L1359 1024C1369.22 1021.78 1381.43 1024.42 1392 1023.96C1417.32 1022.85 1442.52 1022 1468 1022C1475.33 1022 1499.66 1026.19 1502.99 1018.89C1504.11 1016.45 1503.99 1013.62 1504 1011C1504.09 993.104 1486.52 998 1473 998C1445.85 998 1418.86 997.346 1392 996.04C1381.41 995.525 1369.24 998.226 1359 996M804.044 997.746C798.438 999.96 797.827 1007.78 804.044 1009.57C813.712 1012.34 828.692 1008.76 839 1009.01C869.29 1009.76 899.637 1010 930 1010L959 1010C962.377 1010 967.748 1010.95 970.432 1008.4C973.855 1005.14 972.381 998.757 967.942 997.434C959.261 994.845 947.043 997 938 997C905.639 997 873.286 997.194 841 997.985C830.89 998.233 813.167 994.144 804.044 997.746M1310 997L1311 998L1310 997M1337 997L1338 998L1337 997z"/>
<path style="fill:#ac785a; stroke:none;" d="M1347 997L1348 998L1347 997z"/>
<path style="fill:#2ba6a4; stroke:none;" d="M1304.67 998.333L1305.33 998.667L1304.67 998.333z"/>
<path style="fill:#ac785a; stroke:none;" d="M1242 1000L1242 1003L1243 1003L1242 1000M1348 1001L1349 1002L1348 1001M1243 1003L1243 1007L1244 1007L1243 1003z"/>
<path style="fill:#2ba6a4; stroke:none;" d="M1287 1003L1288 1004L1287 1003M1282.67 1004.33L1283.33 1004.67L1282.67 1004.33z"/>
<path style="fill:#ac785a; stroke:none;" d="M1349 1005L1350 1006L1349 1005z"/>
<path style="fill:#e0b782; stroke:none;" d="M542 1007L543 1008L542 1007z"/>
<path style="fill:#ac785a; stroke:none;" d="M1350.33 1007.67L1350.67 1008.33L1350.33 1007.67M1244 1008L1245 1009L1244 1008z"/>
<path style="fill:#2ba6a4; stroke:none;" d="M1306 1008L1307 1009L1306 1008z"/>
<path style="fill:#ac785a; stroke:none;" d="M1245 1009L1245 1013L1246 1013L1245 1009z"/>
<path style="fill:#2ba6a4; stroke:none;" d="M1268 1009L1269 1010L1268 1009M1302 1009L1303 1010L1302 1009z"/>
<path style="fill:#ac785a; stroke:none;" d="M1351 1011L1352 1012L1351 1011M1246 1014L1246 1017L1247 1017L1246 1014z"/>
<path style="fill:#2ba6a4; stroke:none;" d="M1284 1014L1285 1015L1284 1014M1280.67 1015.33L1281.33 1015.67L1280.67 1015.33z"/>
<path style="fill:#ac785a; stroke:none;" d="M1352 1015L1353 1016L1352 1015z"/>
<path style="fill:#2ba6a4; stroke:none;" d="M1259 1016L1259 1019L1260 1019L1259 1016z"/>
<path style="fill:#ac785a; stroke:none;" d="M1247 1017L1247 1021L1248 1021L1247 1017z"/>
<path style="fill:#2ba6a4; stroke:none;" d="M1260 1020L1261 1021L1260 1020z"/>
<path style="fill:#ac785a; stroke:none;" d="M1248 1022L1248 1025L1249 1025L1248 1022M1354 1022L1355 1023L1354 1022M1358 1024L1359 1039L1360 1039L1360 1024L1358 1024M1249 1025L1249 1029L1250 1029L1249 1025M1355 1026L1356 1027L1355 1026M794 1057L836 1058L930 1057L959 1057L970.566 1054.68L973 1040L972 1040C971.998 1057.18 954.225 1052 941 1052L840 1052C830 1052 819.999 1052.05 810 1052C806.3 1051.98 801.347 1052.17 799.908 1047.89C793.818 1029.78 818.929 1035.04 829 1035C863.602 1034.85 898.311 1034 933 1034C941.769 1034 967.185 1029.76 972 1038C973.282 1033.6 970.466 1030.45 965.995 1030.06C955.171 1029.1 943.869 1030 933 1030C898.999 1030 864.771 1028.01 831 1028C821.921 1028 802.105 1024.49 794.742 1030.99C790.251 1034.95 792.748 1051.74 794 1057M1356 1028L1356 1031L1357 1031L1356 1028M1250 1030L1251 1031L1250 1030M1251 1031L1251 1035L1252 1035L1251 1031z"/>
<path style="fill:#2ba6a4; stroke:none;" d="M804.019 1034.58C797.872 1036.34 796.616 1049.57 803.109 1051.57C814.436 1055.06 831.143 1052 843 1052L930 1052L959 1052C962.221 1052 967.685 1052.97 970.397 1050.82C973.557 1048.32 973.566 1036.61 969.721 1034.74C963.091 1031.53 950.3 1034 943 1034C909.668 1034 876.261 1034.66 843 1034.82C831.754 1034.88 814.619 1031.53 804.019 1034.58z"/>
<path style="fill:#ac785a; stroke:none;" d="M1252 1036L1252 1039L1253 1039L1252 1036M1253 1039L1253 1043L1254 1043L1253 1039M1254 1044L1254 1047L1255 1047L1254 1044M1255 1047L1255 1051L1256 1051L1255 1047M1256 1054L1257 1055L1256 1054M1257 1059L1258 1060L1257 1059M1258.33 1061.67L1258.67 1062.33L1258.33 1061.67M1259 1065L1260 1066L1259 1065M1260 1069L1261 1070L1260 1069M1261 1073L1262 1074L1261 1073M994 1076L994 1077L1040 1077C1028.06 1071.99 1007 1076 994 1076M1118 1076L1119 1077L1118 1076M1122 1077L1123 1078L1122 1077M1131 1079L1132 1080L1131 1079M128 1179C134.66 1204.74 129.054 1231.34 135.63 1257C137.098 1262.73 138.808 1275.14 142.857 1279.4C146.784 1283.53 161.563 1280 167 1280L238 1280C333.972 1280 429.966 1279 526 1279C855.679 1279 1185.3 1277 1515 1277C1576.39 1277 1637.65 1276 1699 1276L1757 1276C1765.24 1276 1776.08 1277.85 1784 1275.49C1796.54 1271.74 1809.8 1256.09 1820 1248C1840.7 1231.59 1861.48 1215.26 1882 1198.61C1891.13 1191.2 1903 1184.51 1910 1175C1897.8 1172.1 1883.51 1174 1871 1174C1843.67 1174 1816.25 1174.96 1789 1175C1702.33 1175.14 1615.67 1175 1529 1175C1246.34 1175 963.671 1177 681 1177C554.274 1177 427.707 1178 301 1178L183 1178C166.198 1178 144.095 1174.24 128 1179z"/>
</svg>
